<svg width="44" height="42" viewBox="0 0 44 42" fill="none" xmlns="http://www.w3.org/2000/svg">
<path d="M33.5 41.7497H10.5833V14.6663L25.1667 0.0830078L27.7708 2.68717C28.0139 2.93023 28.2135 3.26009 28.3698 3.67676C28.526 4.09342 28.6042 4.49273 28.6042 4.87467V5.60384L26.3125 14.6663H39.75C40.8611 14.6663 41.8333 15.083 42.6667 15.9163C43.5 16.7497 43.9167 17.7219 43.9167 18.833V22.9997C43.9167 23.2427 43.8819 23.5031 43.8125 23.7809C43.7431 24.0587 43.6736 24.3191 43.6042 24.5622L37.3542 39.2497C37.0417 39.9441 36.5208 40.5344 35.7917 41.0205C35.0625 41.5066 34.2986 41.7497 33.5 41.7497ZM14.75 37.583H33.5L39.75 22.9997V18.833H21L23.8125 7.37467L14.75 16.4372V37.583ZM10.5833 14.6663V18.833H4.33334V37.583H10.5833V41.7497H0.166672V14.6663H10.5833Z" fill="black"/>
<path d="M10.5833 37.583V18.833H4.33334V37.583H10.5833Z" fill="#747775"/>
</svg>
