<svg width="18" height="18" viewBox="0 0 18 18" fill="none" xmlns="http://www.w3.org/2000/svg">
<path d="M9 18L7.695 16.7248C6.18 15.2371 4.9275 13.9537 3.9375 12.8747C2.9475 11.7956 2.16 10.827 1.575 9.96867C0.99 9.11035 0.58125 8.32153 0.34875 7.60218C0.11625 6.88283 0 6.14714 0 5.3951C0 3.85831 0.4725 2.57493 1.4175 1.54496C2.3625 0.514986 3.54 0 4.95 0C5.73 0 6.4725 0.179836 7.1775 0.53951C7.8825 0.899183 8.49 1.40599 9 2.05995C9.51 1.40599 10.1175 0.899183 10.8225 0.53951C11.5275 0.179836 12.27 0 13.05 0C14.46 0 15.6375 0.514986 16.5825 1.54496C17.5275 2.57493 18 3.85831 18 5.3951C18 6.14714 17.8838 6.88283 17.6513 7.60218C17.4188 8.32153 17.01 9.11035 16.425 9.96867C15.84 10.827 15.0525 11.7956 14.0625 12.8747C13.0725 13.9537 11.82 15.2371 10.305 16.7248L9 18ZM9 15.3515C10.44 13.9455 11.625 12.7398 12.555 11.7343C13.485 10.7289 14.22 9.85422 14.76 9.11035C15.3 8.36649 15.675 7.70436 15.885 7.12398C16.095 6.5436 16.2 5.9673 16.2 5.3951C16.2 4.41417 15.9 3.59673 15.3 2.94278C14.7 2.28883 13.95 1.96185 13.05 1.96185C12.345 1.96185 11.6925 2.17847 11.0925 2.61172C10.4925 3.04496 10.08 3.59673 9.855 4.26703H8.145C7.92 3.59673 7.5075 3.04496 6.9075 2.61172C6.3075 2.17847 5.655 1.96185 4.95 1.96185C4.05 1.96185 3.3 2.28883 2.7 2.94278C2.1 3.59673 1.8 4.41417 1.8 5.3951C1.8 5.9673 1.905 6.5436 2.115 7.12398C2.325 7.70436 2.7 8.36649 3.24 9.11035C3.78 9.85422 4.515 10.7289 5.445 11.7343C6.375 12.7398 7.56 13.9455 9 15.3515Z" fill="#FF0000"/>
<path d="M9 15.3515C10.44 13.9455 11.625 12.7398 12.555 11.7343C13.485 10.7289 14.22 9.85422 14.76 9.11035C15.3 8.36649 15.675 7.70436 15.885 7.12398C16.095 6.5436 16.2 5.9673 16.2 5.3951C16.2 4.41417 15.9 3.59673 15.3 2.94278C14.7 2.28883 13.95 1.96185 13.05 1.96185C12.345 1.96185 11.6925 2.17847 11.0925 2.61172C10.4925 3.04496 10.08 3.59673 9.855 4.26703H8.145C7.92 3.59673 7.5075 3.04496 6.9075 2.61172C6.3075 2.17847 5.655 1.96185 4.95 1.96185C4.05 1.96185 3.3 2.28883 2.7 2.94278C2.1 3.59673 1.8 4.41417 1.8 5.3951C1.8 5.9673 1.905 6.5436 2.115 7.12398C2.325 7.70436 2.7 8.36649 3.24 9.11035C3.78 9.85422 4.515 10.7289 5.445 11.7343C6.375 12.7398 7.56 13.9455 9 15.3515Z" fill="#FF0000"/>
</svg>
